HIERARCHY
ROOT Hips
{
     OFFSET 30.06930 95.13880 12.78290
     CHANNELS 6 Xposition Yposition Zposition Zrotation Xrotation Yrotation
     JOINT Spine
     {
          OFFSET -0.00000 11.89050 0.00000
          CHANNELS 3 Zrotation Xrotation Yrotation
          JOINT Spine1
          {
               OFFSET 0.00000 25.65740 0.12766
               CHANNELS 3 Zrotation Xrotation Yrotation
               JOINT HEad
               {
                    OFFSET -0.00000 8.73416 0.01134
                    CHANNELS 3 Zrotation Xrotation Yrotation
                    End Site
                    {
                         OFFSET -0.29000 12.77420 2.51395
                    }
               }
               JOINT LeftShoulder1
               {
                    OFFSET 8.99000 -0.36225 -0.22000
                    CHANNELS 3 Zrotation Xrotation Yrotation
                    JOINT LeftArm
                    {
                         OFFSET 10.28270 -0.00338 0.32212
                         CHANNELS 3 Zrotation Xrotation Yrotation
                         JOINT LeftForeArm
                         {
                              OFFSET 32.76690 0.09914 -1.42434
                              CHANNELS 3 Zrotation Xrotation Yrotation
                              JOINT LeftHand
                              {
                                   OFFSET 27.56430 0.08536 1.02216
                                   CHANNELS 3 Zrotation Xrotation Yrotation
                                   End Site
                                   {
                                        OFFSET 16.74430 -0.60000 1.50291
                                   }
                              }
                         }
                    }
               }
               JOINT RightShoulder
               {
                    OFFSET -8.99000 -0.36225 -0.22000
                    CHANNELS 3 Zrotation Xrotation Yrotation
                    JOINT RightArm
                    {
                         OFFSET -10.28270 -0.00338 0.32212
                         CHANNELS 3 Zrotation Xrotation Yrotation
                         JOINT RightForeArm
                         {
                              OFFSET -32.89710 0.09914 -1.42434
                              CHANNELS 3 Zrotation Xrotation Yrotation
                              JOINT RightHand
                              {
                                   OFFSET -27.49210 0.08536 1.02216
                                   CHANNELS 3 Zrotation Xrotation Yrotation
                                   End Site
                                   {
                                        OFFSET -16.63120 -0.60000 1.50291
                                   }
                              }
                         }
                    }
               }
          }
     }
     JOINT LeftUpLeg
     {
          OFFSET 8.94580 -8.66707 0.10165
          CHANNELS 3 Zrotation Xrotation Yrotation
          JOINT LeftLeg
          {
               OFFSET -0.00000 -44.42270 1.37270
               CHANNELS 3 Zrotation Xrotation Yrotation
               JOINT LeftFoot
               {
                    OFFSET -0.25355 -42.09240 -1.46059
                    CHANNELS 3 Zrotation Xrotation Yrotation
                    JOINT LeftToes
                    {
                         OFFSET -0.04000 -4.41509 8.49910
                         CHANNELS 3 Zrotation Xrotation Yrotation
                         End Site
                         {
                              OFFSET 0.08000 -0.04745 9.77979
                         }
                    }
               }
          }
     }
     JOINT RightUpLeg
     {
          OFFSET -8.94580 -8.66707 0.10165
          CHANNELS 3 Zrotation Xrotation Yrotation
          JOINT RightLeg
          {
               OFFSET -0.00000 -44.42270 1.37270
               CHANNELS 3 Zrotation Xrotation Yrotation
               JOINT RightFoot
               {
                    OFFSET 0.25355 -42.09240 -1.46059
                    CHANNELS 3 Zrotation Xrotation Yrotation
                    JOINT RightToes
                    {
                         OFFSET 0.04000 -4.41509 8.49910
                         CHANNELS 3 Zrotation Xrotation Yrotation
                         End Site
                         {
                              OFFSET -0.08000 -0.13745 9.77979
                         }
                    }
               }
          }
     }
}
MOTION
Frames: 8
Frame Time: 0.01667
30.06930 95.13880 12.78290 -4.41070 -7.56011 -34.00550 -7.11373 9.38448 0.57563 -2.99332 18.22060 0.02058 3.15519 -8.29991 11.50350 -0.00000 -0.00000 0.00000 -115.44900 -56.60980 -100.25300 -31.06720 49.45680 -78.75440 20.39330 6.64971 -14.44310 16.28730 0.97060 2.63134 88.48460 -10.98570 75.91880 13.58790 34.41670 98.61560 17.84260 11.84610 7.74921 12.62530 -10.83950 -7.25003 -22.48890 14.39960 60.87300 -1.15292 8.51832 0.09548 3.61715 -25.71930 -62.36570 -32.18220 8.20530 11.31090 43.48010 -1.07197 -52.61330 -30.35130 -2.76486 1.19554 1.75142 -19.84950 2.29249 
30.01750 94.80810 12.65210 -3.89028 -7.87517 -34.69980 -7.84761 9.42738 0.60358 -3.27841 18.30550 -0.02025 2.58917 -8.45130 9.87009 -0.00000 -0.00000 0.00000 -108.51800 -55.99930 -94.72410 -27.77620 45.48480 -80.82040 20.30270 6.77585 -13.81320 16.22330 0.97388 2.66247 87.88630 -10.42520 75.70510 12.40220 33.47170 98.26900 18.13870 11.89060 7.82852 12.32640 -11.17740 -6.26664 -22.84810 15.31020 61.04330 -1.57516 8.37281 0.15377 3.53912 -25.91790 -62.45320 -33.03990 8.01505 11.46140 44.45340 -2.11113 -54.96880 -30.80770 -4.08957 0.84219 1.68804 -19.36960 1.79344 
30.03380 94.74690 12.61960 -3.71394 -8.03586 -35.44570 -7.81101 9.45958 0.51211 -3.52126 18.40970 -0.09724 3.34060 -8.15091 8.60619 -0.00000 -0.00000 0.00000 -106.02100 -56.23540 -92.48580 -26.52790 44.27410 -81.47010 20.54300 6.78225 -13.55680 15.86680 1.06188 3.21792 88.41890 -11.05080 75.35150 11.95880 33.67220 98.54380 18.78190 11.74290 6.55481 12.39100 -10.91520 -5.77873 -23.32800 15.13170 61.32570 -1.71276 7.46589 0.16496 4.00430 -24.67090 -62.51940 -33.10490 7.89198 10.16220 44.47180 -1.95756 -56.24000 -30.82400 -5.46713 0.45217 1.59953 -18.40020 2.07654 
30.06090 94.60410 12.54400 -3.73960 -8.05476 -36.10320 -7.73735 9.50033 0.47773 -3.72049 18.51220 -0.05200 3.19209 -8.37396 6.38511 -0.00000 -0.00000 0.00000 -106.02600 -56.54860 -91.94280 -28.12880 44.68670 -79.72910 20.74000 6.63586 -14.19430 17.24970 1.01647 2.66852 87.19530 -10.63880 75.14040 11.33090 33.23960 98.18600 19.12680 11.97980 7.73197 12.79480 -10.80080 -5.66519 -23.95140 14.91480 62.11290 -1.20255 7.84474 0.09949 3.42316 -26.23270 -62.39330 -33.15540 7.70807 9.65242 44.94840 -2.03466 -56.99200 -30.20850 -6.62459 0.11711 1.40338 -16.42190 1.77177 
29.98070 94.41760 12.48410 -3.64043 -7.89360 -37.00610 -8.11687 9.47143 0.45616 -3.49083 18.45710 -0.18409 3.42861 -8.26288 3.53370 -0.00000 -0.00000 0.00000 -103.18000 -56.27950 -88.76920 -26.73060 43.04670 -80.88480 20.22120 6.75091 -14.03160 17.62510 1.26447 3.83111 85.96610 -12.10050 74.83470 11.43320 33.17480 98.64820 17.76200 11.67960 6.76872 13.15420 -11.20030 -4.80762 -24.25790 15.77600 62.42180 -1.63230 7.90054 0.15790 3.27164 -26.63920 -62.35690 -33.25430 7.00887 9.16255 45.43070 -1.72552 -57.92070 -31.36250 -6.54419 0.15174 1.60750 -18.51440 1.91409 
29.96220 94.50340 12.42680 -3.75575 -8.04380 -38.04600 -7.84404 9.62517 0.35291 -3.84714 18.80510 -0.23940 4.08063 -7.96718 0.68921 -0.00000 -0.00000 0.00000 -104.15100 -56.61950 -88.77300 -28.43350 43.97940 -79.94010 20.45960 6.71254 -14.02590 18.80490 1.26129 3.52986 85.06390 -12.21300 74.70380 11.46310 33.10600 98.91470 18.02000 11.80680 7.39370 13.48030 -10.44680 -4.43272 -24.58060 15.15420 62.55050 -2.39160 7.46808 0.25433 3.85177 -25.11260 -62.12290 -33.08600 6.76306 7.69155 44.96870 -0.66439 -56.83960 -32.43020 -5.39470 0.50737 1.84546 -20.92330 1.92085 
29.82080 94.27910 12.30700 -3.47735 -8.09511 -38.97650 -8.28573 9.64014 0.27495 -3.65593 18.84060 -0.50278 3.97288 -8.13155 -1.90952 -0.00000 -0.00000 0.00000 -102.33200 -55.97480 -86.38490 -26.17880 43.48720 -81.62750 21.18300 6.60723 -13.94770 18.40900 1.06193 2.66103 85.75390 -11.97590 74.40300 11.68990 33.86230 99.35220 17.85360 11.66650 6.63288 13.50200 -10.71590 -3.33199 -24.65900 16.01390 62.77820 -2.65576 6.98974 0.28098 3.93496 -24.86080 -62.46290 -33.95580 6.25435 8.16739 46.04910 -1.03620 -56.40450 -32.61380 -5.83238 0.37960 1.80215 -20.16480 2.80115 
29.66390 94.24350 12.16920 -3.44972 -7.90743 -40.16340 -8.34587 9.58338 0.21762 -3.67492 18.75490 -0.56573 4.63847 -8.47759 -5.17786 -0.00000 -0.00000 0.00000 -101.29500 -55.80020 -84.71350 -26.35800 43.62040 -81.69270 21.07340 6.64817 -13.82270 19.09250 0.90371 1.78984 84.92600 -11.68200 73.57810 11.79840 33.55400 99.71990 17.91200 11.77690 7.27822 14.17060 -10.43270 -1.99957 -25.03880 15.94870 62.42620 -2.87259 6.71745 0.30349 4.13572 -24.36550 -61.79060 -34.05790 5.41587 8.35604 46.33250 -0.79883 -55.66660 -31.01600 -6.55477 0.14504 1.63261 -18.24090 4.73863 
